<?xml version="1.0" encoding="utf-8"?>
<!-- Generator: Adobe Illustrator 19.0.0, SVG Export Plug-In . SVG Version: 6.00 Build 0)  -->
<svg version="1.1" id="layer" xmlns="http://www.w3.org/2000/svg" xmlns:xlink="http://www.w3.org/1999/xlink" x="0px" y="0px"
	 viewBox="-153 -46 652 652" style="enable-background:new -153 -46 652 652;" xml:space="preserve">
<style type="text/css">
	.st0{fill:#1A48AA;}
	.st1{fill:#222222;}
</style>
<g>
	<g>
		<g>
			<polygon class="st0" points="-82.3,273.5 -91.6,273.5 -91.6,224.1 -82.3,224.1 -82.3,211.8 -125.5,211.8 -125.5,224.1 
				-116.3,224.1 -116.3,273.5 -103.9,285.8 -82.3,285.8 			"/>
			<polygon class="st0" points="-51.5,285.8 -30,285.8 -17.7,273.5 -17.7,224.1 -8.4,224.1 -8.4,211.8 -51.5,211.8 -51.5,224.1 
				-42.4,224.1 -42.4,273.5 -51.5,273.5 			"/>
			<polygon class="st0" points="-7.7,297.3 19.4,270.4 31.7,270.4 31.7,258.1 -14.6,258.1 -14.6,270.4 -9.9,270.4 -28.5,288.9 
				-54.6,288.9 -54.6,270.4 -45.4,270.4 -45.4,258.1 -88.5,258.1 -88.5,270.4 -79.2,270.4 -79.2,325.9 -88.5,325.9 -88.5,338.1 
				-45.4,338.1 -45.4,325.9 -54.6,325.9 -54.6,307.3 -28.5,307.3 -9.9,325.9 -14.6,325.9 -14.6,338.1 31.7,338.1 31.7,325.9 
				20.9,325.9 			"/>
			<path class="st0" d="M23.9,319.6L1.6,297.3l20.8-20.8h15.4v-24.7h-49.4v-21.5h9.3v-24.7h-55.5l0,0v24.7l0,0h9.3V252h-37v-21.6
				h9.3l0,0v-24.7l0,0h-55.5v24.7h9.3v46.2l0,0l0,0l15.4,15.4h21.6v27.7h-9.3v24.7h55.5v-24.7h-9.3v-6.1h16.9l10.8,10.8v20h58.5
				v-24.7l0,0H23.9z M34.7,341.3h-52.4v-18.4l0,0L-30,310.5h-21.6v12.3h9.3v18.4h-49.2v-18.4h9.3v-34h-23.2l-13.9-13.9v-47.7l0,0
				h-9.3v-18.6h49.4v18.4h-9.3v27.7h43.1v-27.7h-9.3v-18.4h49.4v18.4h-9.3v27.7h49.4v18.4H20.9L-3,297.2l25.4,25.4h12.3
				C34.7,322.6,34.7,341.3,34.7,341.3z"/>
		</g>
	</g>
	<g>
		<path class="st1" d="M110,251.3l-9-1.5v-2.2h26.5v2.2l-9.4,1.5v47.4l9.4,1.5v2.2H101v-2.2l9-1.5v-23H80v23l9,1.5v2.2H62.5v-2.2
			l9.4-1.5v-47.4l-9.4-1.5v-2.2h26.3v2.2l-9,1.5v20.9h30.1v-20.9H110z"/>
		<path class="st1" d="M136.7,281c-0.3,10.8,4.2,17.3,14.4,17.3c4,0,7.1-1.2,11.9-4l0.7,1.8c-5.4,5.1-10.1,7.8-15.8,7.8
			c-11.1,0-18.7-8-18.7-20.1c0-12.2,8.2-21.2,18.9-21.2c10.7,0,15.8,8.9,15.8,18.4C163.8,281,136.7,281,136.7,281z M155.9,277.8
			c-0.3-8.3-3.2-12.8-8.7-12.8c-5.8,0-10,5.5-10.5,13.3L155.9,277.8z"/>
		<path class="st1" d="M199.1,296.2c0,2.5,1.5,3.6,7.2,3.3l0.1,1.2c-1.7,1.1-5.8,2.6-8.9,2.6c-3.3,0-4.9-1.7-5.1-6.2l-0.8-0.1
			c-4.2,4.2-8,6.4-12.3,6.4c-5.8,0-9.4-3.6-9.4-8.7c0-7.8,9.6-12.9,22.2-14v-5.3c0-6.7-2.9-9-8.9-9c-3.1,0-5.1,0.8-6.7,1.8
			c1.9,1.2,3.3,3.1,3.3,4.7c0,2.5-1.9,4.2-4.3,4.2c-2.6,0-4.4-1.7-4.4-4.3c0-5.8,9-10.1,17.2-10.1c7.3,0,10.7,3.6,10.7,11.4
			L199.1,296.2L199.1,296.2z M192.1,283c-10.8,0-15.4,4-15.4,9c0,4.2,2.4,6.5,6.2,6.5c2.4,0,5.8-1.2,9.2-3.6V283z"/>
		<path class="st1" d="M227.8,300.7v1.8h-18.9v-1.8l6.1-1.5v-52.7l-6.7-2.8v-1.5l12.9-3.3l0.8,0.6v59.9L227.8,300.7z"/>
		<path class="st1" d="M245,303.1c-5.5,0-8.5-3.3-8.5-9.8v-25.5h-6.7V266l7.3-3.5l4-10.3h2.2v11.1h13.3v4.3h-13.3v23.2
			c0,3.1,0.4,5.1,2.2,6.2c1.1,0.8,2.5,1,5.5,1c1.4,0,3.5-0.1,5.7-0.6l0.1,1.5C253.1,301.5,249,303.1,245,303.1z"/>
		<path class="st1" d="M283.5,267.7c-4,0-7.2,1.4-11,4v27.5l5.8,1.5v1.8h-18.9v-1.8l6.1-1.5v-52.7l-6.7-2.8v-1.5l12.9-3.3l0.8,0.6
			v30.1l0.3,0.1c3.7-3.5,8.3-6.9,14.7-6.9c7.3,0,11.1,5,11.1,11.9v24.7l6.1,1.5v1.8h-19.1v-1.8l5.8-1.5v-22
			C291.6,271.3,289.1,267.7,283.5,267.7z"/>
		<path class="st1" d="M354.5,299.3c-5.5,2.9-10,4.6-17.9,4.6c-17.3,0-29.4-11.2-29.4-28.1c0-17.3,13.5-29.3,29.1-29.3
			c4.4,0,9.4,1.2,13,2.6l2.9-2.9h1.8l0.7,18.4l-1.8,0.1c-4.9-9.7-10.3-15.5-18.3-15.5c-10.1,0-18,9.3-18,25.7
			c0,17.6,9.8,25.8,21.6,25.8c2.6,0,4.9-0.4,6.8-1.2l9.8-11.8l1.2,0.3L354.5,299.3z"/>
		<path class="st1" d="M391.9,296.2c0,2.5,1.5,3.6,7.2,3.3l0.1,1.2c-1.7,1.1-5.8,2.6-8.9,2.6c-3.3,0-4.9-1.7-5.1-6.2l-0.8-0.1
			c-4.2,4.2-8,6.4-12.3,6.4c-5.8,0-9.4-3.6-9.4-8.7c0-7.8,9.6-12.9,22.2-14v-5.3c0-6.7-2.9-9-8.9-9c-3.1,0-5.1,0.8-6.7,1.8
			c1.9,1.2,3.3,3.1,3.3,4.7c0,2.5-1.9,4.2-4.3,4.2c-2.6,0-4.4-1.7-4.4-4.3c0-5.8,9-10.1,17.2-10.1c7.3,0,10.7,3.6,10.7,11.4
			L391.9,296.2L391.9,296.2z M385,283c-10.8,0-15.4,4-15.4,9c0,4.2,2.4,6.5,6.2,6.5c2.4,0,5.8-1.2,9.2-3.6V283z"/>
		<path class="st1" d="M427.4,273.1c-3.2,0-4.9-2.9-4.2-5.7c-2.9-0.4-6.5,3.1-8.6,6.7v25.1l6.4,1.5v1.8h-19.4v-1.8l6.1-1.5v-29.4
			l-6-2.8v-1.5l12.2-3.1l0.8,0.7l-0.7,7.5l0.6,0.3c3.7-6,7.1-8.3,11.1-8.3c3.7,0,6.2,2.2,6.2,5.4S429.8,273.1,427.4,273.1z"/>
		<path class="st1" d="M441.2,281c-0.3,10.8,4.2,17.3,14.4,17.3c4,0,7.1-1.2,11.9-4l0.7,1.8c-5.4,5.1-10.1,7.8-15.8,7.8
			c-11.1,0-18.7-8-18.7-20.1c0-12.2,8.2-21.2,18.9-21.2s15.8,8.9,15.8,18.4C468.4,281,441.2,281,441.2,281z M460.6,277.8
			c-0.3-8.3-3.2-12.8-8.7-12.8c-5.8,0-10,5.5-10.5,13.3L460.6,277.8z"/>
	</g>
</g>
</svg>
